<svg xmlns="http://www.w3.org/2000/svg" xmlns:svg="http://www.w3.org/2000/svg" xmlns:xlink="http://www.w3.org/1999/xlink" id="svg8888" width="256" height="256" version="1.0"><defs id="defs8892"><filter style="color-interpolation-filters:sRGB" id="filter13839" width="1.046" height="1.051" x="-.023" y="-.026"><feGaussianBlur id="feGaussianBlur13815" in="SourceAlpha" result="blur1" stdDeviation="1"/><feComposite id="feComposite13817" in="SourceGraphic" in2="blur1" operator="out" result="composite1"/><feColorMatrix id="feColorMatrix13819" result="colormatrix1" values="1 0 0 0 0 0 1 0 0 0 0 0 1 0 0 0 0 0 100 -1"/><feGaussianBlur id="feGaussianBlur13821" result="blur2" stdDeviation=".4"/><feComposite id="feComposite13823" in="blur2" in2="blur2" operator="over" result="composite2"/><feColorMatrix id="feColorMatrix13825" result="colormatrix2" values="1 0 0 0 0 0 1 0 0 0 0 0 1 0 0 0 0 0 50 -5"/><feGaussianBlur id="feGaussianBlur13827" result="blur3" stdDeviation="1"/><feColorMatrix id="feColorMatrix13829" result="colormatrix3" values="1 0 0 0 0 0 1 0 0 0 0 0 1 0 0 0 0 0 5 -1"/><feFlood id="feFlood13831" flood-color="#000" flood-opacity="1" result="flood"/><feComposite id="feComposite13833" in="flood" in2="colormatrix3" operator="in" result="composite3"/><feComposite id="feComposite13835" in="SourceGraphic" in2="colormatrix3" operator="out" result="composite4"/><feComposite id="feComposite13837" in="composite4" in2="composite3" k1="0" k2="1" k3="1" k4="0" operator="arithmetic" result="composite5"/></filter></defs><rect style="fill:#c2dcb0;fill-opacity:1;stroke-width:.798184;filter:url(#filter13839)" id="rect11598" width="250.004" height="225.006" x="0" y="0" transform="matrix(0.97655046,0,0,1.0850454,6.3249308,6.2498612)"/><g id="g8865" transform="matrix(0.48827523,0.9396769,-0.84571749,0.54252272,138.06624,-5.3806231)"><path id="path8862" fill="none" stroke="#000" stroke-width="5" d="M 53.918417,30.25 H 182.96968"/><path id="a" fill="#000" fill-opacity="1" fill-rule="evenodd" stroke="none" stroke-linecap="butt" stroke-linejoin="miter" stroke-opacity="1" stroke-width="1" d="M 196.87444,30.530121 175.42457,18.180403 v 24.733811 z"/></g><g id="g8871" transform="matrix(0.48827523,0.9396769,-0.84571749,0.54252272,138.06624,-5.3806231)"><path id="path8867" fill="none" stroke="#000" stroke-width="5" d="M 49.228763,61.218153 113.65969,172.81573"/><use id="use8869" width="250" height="225" x="0" y="0" transform="rotate(-120,124.63107,84.398383)" xlink:href="#a"/></g><g id="g8879" transform="matrix(0.48827523,0.9396769,-0.84571749,0.54252272,138.06624,-5.3806231)"><path id="path8873" fill="none" stroke="#000" stroke-width="5" d="M 143.45526,161.53001 201.79466,60.483252"/><use id="use8875" width="250" height="225" x="0" y="0" transform="rotate(-60,218.62571,29.701547)" xlink:href="#a"/><use id="use8877" width="250" height="225" x="0" y="0" transform="rotate(120,125.53083,84.408825)" xlink:href="#a"/></g><g id="g8886" transform="matrix(0.48827523,0.9396769,-0.84571749,0.54252272,138.06624,-5.3806231)"><path id="b" fill="#007fff" fill-opacity="1" fill-rule="evenodd" stroke="#000070" stroke-dasharray="none" stroke-dashoffset="0" stroke-miterlimit="4" stroke-opacity="1" stroke-width="3.75" d="m 51.301509,30 a 19.301508,19.301508 0 1 1 -38.603016,0 19.301508,19.301508 0 1 1 38.603016,0 z"/><use id="use8882" width="250" height="225" x="0" y="0" transform="translate(186)" xlink:href="#b"/><use id="use8884" width="250" height="225" x="0" y="0" transform="translate(93,161)" xlink:href="#b"/></g><text xml:space="preserve" style="font-style:normal;font-variant:normal;font-weight:400;font-stretch:normal;font-size:98.8195px;line-height:125%;font-family:msbm10;-inkscape-font-specification:msbm10;letter-spacing:0;word-spacing:0;fill:#000;fill-opacity:1;stroke:none;stroke-width:1.02937px;stroke-linecap:butt;stroke-linejoin:miter;stroke-opacity:1" id="text10556" x="107.859" y="173.118" transform="scale(0.94868794,1.0540874)"><tspan id="tspan10554" x="107.859" y="173.118" style="stroke-width:1.02937px">δ</tspan></text></svg>